# xmcd
#
# Track frame offsets:
#	150
#	19510
#	68392
#	86700
#	112085
#	150383
#	190340
#	199744
#	223499
#	253114
#	269464
#	288191
#	305521
#
# Disc length: 4346 seconds
#
# Revision: 0
# Processed by: cddbd v1.4PL0 Copyright (c) Steve Scherf et al.
# Submitted via: EasyCDDAExtractor 4.5.0.2
#
DISCID=bb10f80d
DTITLE=Led Zeppelin - Physical Graffiti
DYEAR=1975
DGENRE=
TTITLE0=Custard Pie        
TTITLE1=In My Time Of Dying
TTITLE2=Houses Of The Holy 
TTITLE3=Trampled Underfoot 
TTITLE4=Kashmir            
TTITLE5=In The Light       
TTITLE6=Bron-Yr-Aur        
TTITLE7=Down By The Seaside
TTITLE8=Ten Years Gone     
TTITLE9=Night Flight       
TTITLE10=Wanton Song        
TTITLE11=Boogie With Stu    
TTITLE12=Black Country Woman
EXTD=
EXTT0=
EXTT1=
EXTT2=
EXTT3=
EXTT4=
EXTT5=
EXTT6=
EXTT7=
EXTT8=
EXTT9=
EXTT10=
EXTT11=
EXTT12=
PLAYORDER=
